<?xml version="1.0" encoding="utf-8"?>
<!-- Generator: Adobe Illustrator 28.1.0, SVG Export Plug-In . SVG Version: 6.00 Build 0)  -->
<svg version="1.1" id="Capa_1" xmlns="http://www.w3.org/2000/svg" xmlns:xlink="http://www.w3.org/1999/xlink" x="0px" y="0px"
	 viewBox="0 0 272.69 106.41" style="enable-background:new 0 0 272.69 106.41;" xml:space="preserve">
<style type="text/css">
	.st0{fill:#FFDF62;}
</style>
<g>
	<path class="st0" d="M40.97,40.21c4.5-1.17,6.71-3.9,5.81-7.35l-0.04-0.16c-0.94-3.61-4.22-4.65-8.56-3.52l-8.2,2.14l2.87,11.01
		L40.97,40.21z M7.08,20.47l27.48-7.17c9.96-2.6,16.96-1.76,21.93,1.14c4.26,2.5,7.11,6.21,8.62,12l0.04,0.16
		c2.14,8.2-0.63,15.01-6.6,20.09L76.63,62.4L55.18,68l-14.8-13.3l-4.02,1.05l4.19,16.07l-18.8,4.91L7.08,20.47z"/>
	<path class="st0" d="M122.67,54.34v-0.17c0-6.89-4.73-13.12-12.2-13.12c-7.39,0-12.04,6.15-12.04,12.96v0.17
		c0,6.89,4.73,13.12,12.2,13.12C118.02,67.3,122.67,61.15,122.67,54.34 M78.83,54.34v-0.17c0-16.86,13.86-30.31,31.8-30.31
		s31.64,13.29,31.64,30.14v0.17c0,16.86-13.87,30.31-31.8,30.31C92.53,84.48,78.83,71.2,78.83,54.34"/>
	<path class="st0" d="M183.04,76.98c4.2-0.54,6.12-2.54,5.8-5.01l-0.02-0.16c-0.32-2.47-2.6-3.94-6.8-3.4l-9.72,1.25l1.1,8.56
		L183.04,76.98z M179.18,56.71c4.12-0.53,5.91-2.18,5.59-4.74l-0.02-0.16c-0.33-2.56-2.57-3.69-6.68-3.16l-8.32,1.07l1.04,8.07
		L179.18,56.71z M149.09,37.56l32.29-4.15c7.99-1.03,13.25,0.14,17.06,3.08c2.32,1.79,4.19,4.57,4.69,8.52l0.02,0.16
		c0.88,6.84-2.7,11.57-8.6,14.5c7.69,1.19,12.98,4.53,13.99,12.43l0.02,0.16c1.19,9.22-5.52,16.95-20.1,18.83l-31.96,4.11
		L149.09,37.56z"/>
</g>
<polygon class="st0" points="215.3,32.38 215.3,90.51 265.29,90.51 265.29,74.56 234.4,74.56 234.4,68.25 262.8,68.25 262.8,54.22 
	234.4,54.22 234.4,48.32 264.88,48.32 264.88,32.38 "/>
</svg>
